<svg id="Layer_1" data-name="Layer 1" xmlns="http://www.w3.org/2000/svg" viewBox="0 0 512.59 172"><defs><style>.cls-1,.cls-2,.cls-3,.cls-7{fill:none;stroke-miterlimit:10;}.cls-1,.cls-2{stroke:#231f20;}.cls-1{stroke-width:5px;}.cls-3{stroke:#7f3f98;}.cls-3,.cls-7{stroke-width:6px;}.cls-4{font-size:62px;fill:#ec008c;font-family:Roboto-Italic, Roboto;}.cls-4,.cls-5{font-style:italic;}.cls-5{font-size:80px;fill:#fff;font-family:Roboto-MediumItalic, Roboto;}.cls-6{letter-spacing:-0.01em;}.cls-7{stroke:#ec008c;}</style></defs><title>VrFitness</title><path class="cls-1" d="M602,218.47" transform="translate(-62.91 -138.63)"/><path class="cls-1" d="M223.66,218.92" transform="translate(-62.91 -138.63)"/><path class="cls-1" d="M-36,215" transform="translate(-62.91 -138.63)"/><path class="cls-2" d="M173.66,240.28" transform="translate(-62.91 -138.63)"/><path class="cls-2" d="M176.33,304.59" transform="translate(-62.91 -138.63)"/><path class="cls-2" d="M217.16,240.28" transform="translate(-62.91 -138.63)"/><path class="cls-2" d="M219.83,304.59" transform="translate(-62.91 -138.63)"/><path class="cls-2" d="M268.91,246" transform="translate(-62.91 -138.63)"/><path class="cls-2" d="M271.58,310.34" transform="translate(-62.91 -138.63)"/><path class="cls-2" d="M195.41,240.28" transform="translate(-62.91 -138.63)"/><path class="cls-2" d="M198.08,304.59" transform="translate(-62.91 -138.63)"/><path class="cls-3" d="M154.16,265.59" transform="translate(-62.91 -138.63)"/><path class="cls-3" d="M196.83,288.45" transform="translate(-62.91 -138.63)"/><path class="cls-3" d="M225.38,214.91" transform="translate(-62.91 -138.63)"/><path class="cls-3" d="M196.83,288.45" transform="translate(-62.91 -138.63)"/><path class="cls-3" d="M154.16,265.59" transform="translate(-62.91 -138.63)"/><path class="cls-3" d="M124.66,218.92" transform="translate(-62.91 -138.63)"/><path class="cls-3" d="M124.66,218.92" transform="translate(-62.91 -138.63)"/><text class="cls-4" transform="translate(159.75 150.32)">R</text><text class="cls-5" transform="translate(204.33 150.32)">F<tspan class="cls-6" x="43.01" y="0">I</tspan><tspan x="64.18" y="0">TNESS</tspan></text><path class="cls-3" d="M52.91,216.82" transform="translate(-62.91 -138.63)"/><path class="cls-3" d="M573.5,216.64" transform="translate(-62.91 -138.63)"/><path class="cls-3" d="M222.66,216.64" transform="translate(-62.91 -138.63)"/><polyline class="cls-7" points="0 77.2 61.75 77.2 80.09 41.7 99.76 78.19 116.42 13.04 144.02 140.12 156.92 78.01 512.59 78.01"/></svg>